<?xml version="1.0" encoding="utf-8"?>
<!-- Generator: Adobe Illustrator 16.0.0, SVG Export Plug-In . SVG Version: 6.00 Build 0)  -->
<!DOCTYPE svg PUBLIC "-//W3C//DTD SVG 1.1//EN" "http://www.w3.org/Graphics/SVG/1.1/DTD/svg11.dtd">
<svg version="1.1" id="Layer_1" xmlns="http://www.w3.org/2000/svg" xmlns:xlink="http://www.w3.org/1999/xlink" x="0px" y="0px"
	 width="1400px" height="1400px" viewBox="0 0 1400 1400" enable-background="new 0 0 1400 1400" xml:space="preserve">
<g>
	<rect y="0" fill="#FFFFFF" width="1400" height="1400"/>
	<path fill="#B06B7B" d="M1323.8,1279.9c0,25.6-20.8,46.4-46.4,46.4H117.6c-25.6,0-46.4-20.8-46.4-46.4V120.1
		c0-25.6,20.8-46.4,46.4-46.4h1159.8c25.6,0,46.4,20.8,46.4,46.4V1279.9z"/>
	<g>
		<path fill="#D5DBF1" d="M1160.1,972.9V420.3c0-35-28.4-63.4-63.4-63.4H298.4c-35,0-63.4,28.4-63.4,63.4v552.6H1160.1z"/>
		<path fill="#FEFFFF" d="M152.4,972.9v23.2c0,25.6,20.8,46.4,46.4,46.4h997.5c25.6,0,46.4-20.8,46.4-46.4v-23.2H152.4z"/>
		<rect x="277.4" y="403.3" fill="#1DD8DF" width="840.2" height="530.9"/>
		<rect x="576.7" y="972.9" fill="#B1B6C9" width="241.6" height="23.8"/>
		<rect x="323.8" y="448.4" fill="#2BE8EC" width="415.6" height="113.4"/>
		<rect x="782.5" y="448.4" fill="#2BE8EC" width="288.7" height="215.2"/>
		<rect x="782.5" y="708.4" fill="#2BE8EC" width="288.7" height="180.7"/>
		<rect x="323.8" y="606.3" fill="#2BE8EC" width="166.9" height="282.9"/>
		<rect x="533.2" y="606.3" fill="#2BE8EC" width="206.2" height="282.9"/>
		<g>
			<path fill="#FFBA4D" d="M979.7,507H415.3c-25.6,0-46.4,20.8-46.4,46.4v230.7c0,7.5,1.8,14.6,5,20.9l640.9-281.8
				C1006.3,513.3,993.8,507,979.7,507z"/>
			<path fill="#E6A745" d="M373.9,805c7.6,15.1,23.3,25.5,41.4,25.5h564.5c25.6,0,46.4-20.8,46.4-46.4V553.4
				c0-11.6-4.3-22.1-11.3-30.3L373.9,805z"/>
		</g>
		<g>
			<text transform="matrix(1 0 0 1 563.457 733.9434)" fill="#FFFFFF" font-family="'Oswald'" font-size="157.2797">CODE</text>
			<text transform="matrix(1 0 0 1 407.207 711.7617)" fill="#FFFFFF" font-family="'Oswald'" font-size="157.2797">&lt;</text>
			<text transform="matrix(1 0 0 1 484.5156 724.2832)" fill="#FFFFFF" font-family="'Oswald'" font-size="140.6662">/</text>
			<text transform="matrix(1 0 0 1 926.2344 711.7617)" fill="#FFFFFF" font-family="'Oswald'" font-size="157.2797">&gt;</text>
		</g>
	</g>
	<polygon fill="#4A739C" points="958.5,321.3 958.5,418.8 1055.5,321.3 1260.2,321.3 1260.2,139.2 882.3,139.2 882.3,321.3 	"/>
	<text transform="matrix(1 0 0 1 961.3555 278.959)" fill="#FFFFFF" font-family="'Oswald'" font-size="157.2797">&lt;</text>
	<text transform="matrix(1 0 0 1 1044.4688 291.4805)" fill="#FFFFFF" font-family="'Oswald'" font-size="140.6662">/</text>
	<text transform="matrix(1 0 0 1 1117.6016 278.959)" fill="#FFFFFF" font-family="'Oswald'" font-size="157.2797">&gt;</text>
	<text transform="matrix(1 0 0 1 136.4102 190.1777)" fill="#FFFFFF" font-family="'Oswald'" font-size="80.3076">WEB</text>
	<text transform="matrix(1 0 0 1 128.6719 321.3223)" fill="#FFFFFF" font-family="'Oswald'" font-size="130.0557">DEVELOPMENT</text>
	<path fill="#FF7C78" d="M1193.9,1028.3c21.6,110-50.1,216.6-160,238.2c-110,21.6-216.6-50.1-238.2-160
		c-21.6-110,50.1-216.6,160-238.2C1065.7,846.7,1172.3,918.3,1193.9,1028.3z"/>
	
		<rect x="835.6" y="1077.9" transform="matrix(0.9813 -0.1925 0.1925 0.9813 -195.2369 183.4032)" fill="#F2D84F" width="21.3" height="37.1"/>
	<g>
		<path fill="#FFFFFF" d="M1113.2,1130.4l-7.9,1.6c-36,7.1-71-16.5-78.1-52.5l-8.2-41.9c-7.1-36,16.5-71,52.5-78.1l7.9-1.6l0.7,3.8
			l-7.9,1.6c-33.9,6.7-56.1,39.7-49.4,73.6l8.2,41.9c6.7,33.9,39.7,56.1,73.6,49.4l7.9-1.6L1113.2,1130.4z"/>
	</g>
	<g>
		
			<rect x="1069.8" y="950.3" transform="matrix(0.9813 -0.1924 0.1924 0.9813 -164.6273 225.754)" fill="#FF6D68" width="20.2" height="20.2"/>
		<path fill="#FFFFFF" d="M1094,969.9l-23.6,4.6l-4.6-23.6l23.6-4.6L1094,969.9z M1073.5,970l16-3.1l-3.1-16l-16,3.1L1073.5,970z"/>
	</g>
	<g>
		<polygon fill="#FF6D68" points="1124.7,1136.4 1104.9,1140.3 1101,1120.5 1120.8,1116.6 		"/>
		<path fill="#FFFFFF" d="M1127,1138l-23.6,4.6l-4.6-23.6l23.6-4.6L1127,1138z M1106.4,1138l16-3.1l-3.1-16l-16,3.1L1106.4,1138z"/>
	</g>
	<g>
		
			<rect x="1024.1" y="936.5" transform="matrix(0.9811 -0.1934 0.1934 0.9811 -185.8647 218.4717)" fill="#FFFFFF" width="3.9" height="249.4"/>
	</g>
	<g>
		<path fill="#FF6D68" d="M1013.5,936.6c1.2,6.3-2.9,12.5-9.2,13.7c-6.3,1.2-12.5-2.9-13.7-9.2c-1.2-6.3,2.9-12.5,9.2-13.7
			S1012.3,930.3,1013.5,936.6z"/>
		<path fill="#FFFFFF" d="M1004.7,952.2c-7.4,1.4-14.5-3.4-16-10.7c-1.4-7.4,3.4-14.5,10.7-16s14.5,3.4,16,10.7
			C1016.8,943.6,1012,950.8,1004.7,952.2z M1000.2,929.3c-5.3,1-8.7,6.2-7.7,11.4c1,5.3,6.2,8.7,11.4,7.7c5.3-1,8.7-6.2,7.7-11.4
			C1010.6,931.7,1005.5,928.3,1000.2,929.3z"/>
	</g>
	<g>
		<path fill="#FF6D68" d="M1061.5,1181.3c1.2,6.3-2.9,12.5-9.2,13.7s-12.5-2.9-13.7-9.2c-1.2-6.3,2.9-12.5,9.2-13.7
			C1054.1,1170.9,1060.3,1175,1061.5,1181.3z"/>
		<path fill="#FFFFFF" d="M1052.7,1196.9c-7.4,1.4-14.5-3.4-16-10.7c-1.4-7.4,3.4-14.5,10.7-16c7.4-1.4,14.5,3.4,16,10.7
			C1064.9,1188.3,1060,1195.5,1052.7,1196.9z M1048.2,1174c-5.3,1-8.7,6.2-7.7,11.4c1,5.3,6.2,8.7,11.4,7.7c5.3-1,8.7-6.2,7.7-11.4
			C1058.6,1176.4,1053.5,1173,1048.2,1174z"/>
	</g>
	<g>
		<path fill="#FFFFFF" d="M891.4,1087.7c-1.5-7.9,3.6-15.5,11.5-17.1c7.1-1.4,14,2.7,16.4,9.3l90.2-17.7
			c-2.7-7.9-10.9-12.9-19.3-11.2c-5.6,1.1-9.9,4.8-12.1,9.5l-10.1,2c-44.4-4.3-77.8-23.8-77.8-23.8l-36.7,38.8l3.3,17L891.4,1087.7
			L891.4,1087.7z"/>
		<path fill="#DBDBDB" d="M908.4,1099.1c-7.9,1.5-15.5-3.6-17.1-11.5l-34.6,6.8l3.3,17l48.6,22.1c0,0,23.6-30.7,63-51.5l10.1-2
			c3.9,3.6,9.3,5.4,14.8,4.3c8.5-1.7,14.2-9.3,13.6-17.7l-90.2,17.7C920.3,1091.3,915.5,1097.7,908.4,1099.1z"/>
	</g>
	<path fill="#D1D1D1" d="M344.9,1213.9c6.4,5.1,14.9,7.6,23.6,5.9l20.2-4l-2-10.1L344.9,1213.9z"/>
	<path fill="#FFFFFF" d="M377.4,1158.8l-20.2,4c-15.8,3.1-26,18.4-22.9,34.1c1.4,7.1,5.3,12.9,10.5,17.1l41.8-8.2L377.4,1158.8z"/>
	<path fill="#50667E" d="M708.8,1104.3c-6.4-5.1-14.9-7.6-23.6-5.9l-307.8,60.4l9.2,46.9l329.4-64.6l123.4-24.2l-7.2-36.8
		L708.8,1104.3z"/>
	<path fill="#3F5163" d="M388.6,1215.8l307.8-60.4c8.7-1.7,15.6-7.2,19.6-14.3l-329.4,64.6L388.6,1215.8z"/>
	<path fill="#4A739C" d="M492.6,1235.2c0,17-13.9,30.9-30.9,30.9H271.8c-17,0-30.9-13.9-30.9-30.9v-189.8c0-17,13.9-30.9,30.9-30.9
		h189.8c17,0,30.9,13.9,30.9,30.9V1235.2z"/>
	<path fill="#FFFFFF" d="M449.8,1100.7l-19.6,3.5c-7.2-12.6-18-23-31.5-29.5l2.2-19.8c-4.2-1.7-8.6-3.1-13.2-4.1
		c-4.6-1.1-9.1-1.8-13.7-2.1l-6.8,18.7c-15-0.1-29.4,4.4-41.4,12.5l-16-11.8c-7.2,5.7-13.6,12.5-18.9,20.2l12.8,15.2
		c-3.6,6.2-6.4,13-8.1,20.3c-1.7,7.3-2.3,14.7-1.7,21.8l-18.2,8c1.3,9.2,4.1,18.1,8,26.4l19.5-3.5c7.2,12.6,18,23,31.5,29.6
		l-2.2,19.8c4.2,1.7,8.6,3.1,13.2,4.1c4.6,1.1,9.1,1.8,13.7,2.1l6.8-18.7c15,0.1,29.4-4.4,41.4-12.5l16,11.8
		c7.2-5.7,13.6-12.5,18.9-20.2l-12.8-15.2c3.6-6.2,6.4-13,8.1-20.3c1.7-7.3,2.3-14.7,1.7-21.8l18.2-8
		C456.4,1117.9,453.7,1109,449.8,1100.7z M411.6,1150.8c-5.8,24.8-30.6,40.2-55.4,34.4c-24.8-5.8-40.2-30.6-34.4-55.4
		c5.8-24.8,30.6-40.2,55.4-34.4C402,1101.2,417.4,1126,411.6,1150.8z"/>
</g>
</svg>
