<?xml version="1.0" encoding="utf-8"?>
<!-- Generator: Adobe Illustrator 22.1.0, SVG Export Plug-In . SVG Version: 6.00 Build 0)  -->
<svg version="1.1" xmlns="http://www.w3.org/2000/svg" xmlns:xlink="http://www.w3.org/1999/xlink" x="0px" y="0px"
	 viewBox="0 0 1400 1200" style="enable-background:new 0 0 1400 1200;" xml:space="preserve">
<style type="text/css">
	.st0{fill:#EAEAEA;}
	.st1{fill:#E84C43;}
	.st2{opacity:0.37;fill:#E84C43;}
	.st3{fill:#409BED;}
	.st4{fill:#FFFFFF;}
	.st5{fill:#595E63;}
	.st6{font-family:'MyriadPro-Regular';}
	.st7{font-size:31.4125px;}
	.st8{letter-spacing:3;}
	.st9{letter-spacing:2;}
	.st10{font-size:23.7175px;}
	.st11{fill:#E5E7EA;}
	.st12{font-family:'Roboto-Light';}
	.st13{font-size:13.2196px;}
	.st14{letter-spacing:1;}
	.st15{fill:none;}
	.st16{font-size:12.3169px;}
	.st17{font-size:25.9622px;}
	.st18{font-size:19.3619px;}
	.st19{fill:#C6C2C2;}
	.st20{font-size:16.6418px;}
	.st21{opacity:0.5;fill:#FFFFFF;}
</style>
<g id="Layer_2">
	<rect class="st0" width="1400" height="1200"/>
</g>
<g id="Layer_1">
	<g>
		<path class="st1" d="M498.7,80.3H67.9c-4.6,0-8.3,3.7-8.3,8.3v70.4c0,4.6,3.7,8.3,8.3,8.3h430.8c4.6,0,8.3-3.7,8.3-8.3V88.5
			C507,84,503.3,80.3,498.7,80.3z"/>
		<path class="st2" d="M789.9,80.3H600.3c-4.6,0-8.3,3.7-8.3,8.3v20.7c0,4.6,3.7,8.3,8.3,8.3h189.6V80.3z"/>
		<path class="st1" d="M1314.9,80.3H800.2v37.3h514.6c4.6,0,8.3-3.7,8.3-8.3V88.5C1323.2,84,1319.5,80.3,1314.9,80.3z"/>
		<path class="st3" d="M498.7,191.7H67.9c-4.6,0-8.3,3.7-8.3,8.3v70.4c0,4.6,3.7,8.3,8.3,8.3h430.8c4.6,0,8.3-3.7,8.3-8.3V200
			C507,195.4,503.3,191.7,498.7,191.7z"/>
		<path class="st3" d="M795.2,923H604.8c-4.6,0-8.3,3.7-8.3,8.3v195.7c0,4.6,3.7,8.3,8.3,8.3h190.4c4.6,0,8.3-3.7,8.3-8.3V931.2
			C803.5,926.7,799.8,923,795.2,923z"/>
		<path class="st4" d="M780.3,939.6H619.7c-3.8,0-7,3.1-7,7v100.9c0,3.8,3.1,7,7,7h160.6c3.8,0,7-3.1,7-7V946.6
			C787.2,942.8,784.1,939.6,780.3,939.6z"/>
		<path class="st4" d="M1058.9,923H868.5c-4.6,0-8.3,3.7-8.3,8.3v195.7c0,4.6,3.7,8.3,8.3,8.3h190.4c4.6,0,8.3-3.7,8.3-8.3V931.2
			C1067.2,926.7,1063.5,923,1058.9,923z"/>
		<path class="st5" d="M1067.2,1060.9V931.2c0-4.6-3.7-8.3-8.3-8.3H868.5c-4.6,0-8.3,3.7-8.3,8.3v129.6H1067.2z"/>
		<path class="st1" d="M1327.7,923h-190.4c-4.6,0-8.3,3.7-8.3,8.3v195.7c0,4.6,3.7,8.3,8.3,8.3h190.4c4.6,0,8.3-3.7,8.3-8.3V931.2
			C1335.9,926.7,1332.2,923,1327.7,923z"/>
		<path class="st4" d="M1322,1062.2V944.4c0-3.9-3.2-7.2-7.2-7.2h-164.7c-3.9,0-7.2,3.2-7.2,7.2v117.8c0,4.3,3.5,7.9,7.9,7.9h163.3
			C1318.5,1070.1,1322,1066.6,1322,1062.2z"/>
		<g>
			<path class="st4" d="M1221.9,1088.1h-68.8c-3.7,0-6.7,3-6.7,6.7v13.5c0,3.7,3,6.7,6.7,6.7h68.8c3.7,0,6.7-3,6.7-6.7v-13.5
				C1228.6,1091.1,1225.6,1088.1,1221.9,1088.1z"/>
			<path class="st4" d="M1314.9,1088.1H1246c-3.7,0-6.7,3-6.7,6.7v13.5c0,3.7,3,6.7,6.7,6.7h68.8c3.7,0,6.7-3,6.7-6.7v-13.5
				C1321.6,1091.1,1318.6,1088.1,1314.9,1088.1z"/>
		</g>
		<path class="st1" d="M498.7,539.9H67.9c-4.6,0-8.3,3.7-8.3,8.3v70.4c0,4.6,3.7,8.3,8.3,8.3h430.8c4.6,0,8.3-3.7,8.3-8.3v-70.4
			C507,543.6,503.3,539.9,498.7,539.9z"/>
		
			<rect x="249.4" y="369.3" transform="matrix(-1.836970e-16 1 -1 -1.836970e-16 866.7119 300.0659)" class="st4" width="67.8" height="428.2"/>
		<path class="st1" d="M467.5,617.3h-45v-67.8h45v-9.6h-46.3c-4.6,0-8.3,3.7-8.3,8.3v70.4c0,4.6,3.7,8.3,8.3,8.3h46.3V617.3z"/>
		<path class="st5" d="M463.5,309.1H103.1c-24,0-43.5,19.5-43.5,43.5v0c0,24,19.5,43.5,43.5,43.5h360.4c24,0,43.5-19.5,43.5-43.5v0
			C507,328.5,487.5,309.1,463.5,309.1z"/>
		<path class="st4" d="M103.1,385.7c-18.3,0-33.1-14.9-33.1-33.1s14.9-33.1,33.1-33.1h360.4c18.3,0,33.1,14.9,33.1,33.1
			s-14.9,33.1-33.1,33.1H103.1z"/>
		<path class="st3" d="M463.5,421.7H103.1c-24,0-43.5,19.5-43.5,43.5v0c0,24,19.5,43.5,43.5,43.5h360.4c24,0,43.5-19.5,43.5-43.5v0
			C507,441.2,487.5,421.7,463.5,421.7z"/>
		<text transform="matrix(1 0 0 1 229.0913 135.709)"><tspan x="0" y="0" class="st4 st6 st7 st8">But</tspan><tspan x="54.2" y="0" class="st4 st6 st7 st9">t</tspan><tspan x="67.5" y="0" class="st4 st6 st7 st8">on</tspan></text>
		<text transform="matrix(1 0 0 1 229.0913 244.2544)"><tspan x="0" y="0" class="st4 st6 st7 st8">But</tspan><tspan x="54.2" y="0" class="st4 st6 st7 st9">t</tspan><tspan x="67.5" y="0" class="st4 st6 st7 st8">on</tspan></text>
		<text transform="matrix(1 0 0 1 229.0913 363.3384)"><tspan x="0" y="0" class="st5 st6 st7 st8">But</tspan><tspan x="54.2" y="0" class="st5 st6 st7 st9">t</tspan><tspan x="67.5" y="0" class="st5 st6 st7 st8">on</tspan></text>
		<path class="st4" d="M790.1,491.9H622.8c-18.1,0-32.8,14.7-32.8,32.8v0c0,18.1,14.7,32.8,32.8,32.8h167.3
			c18.1,0,32.8-14.7,32.8-32.8v0C822.9,506.6,808.2,491.9,790.1,491.9z"/>
		<path class="st4" d="M1317.1,607.7H613.7c-7.9,0-14.2,6.4-14.2,14.2v37.2c0,7.9,6.4,14.2,14.2,14.2h703.4
			c7.9,0,14.2-6.4,14.2-14.2v-37.2C1331.3,614,1324.9,607.7,1317.1,607.7z"/>
		<path class="st1" d="M625.4,491.9h-2.6c-18.1,0-32.8,14.7-32.8,32.8v0c0,18.1,14.7,32.8,32.8,32.8h2.6c18.1,0,32.8-14.7,32.8-32.8
			v0C658.2,506.6,643.5,491.9,625.4,491.9z"/>
		<text transform="matrix(1 0 0 1 686.2993 532.8657)"><tspan x="0" y="0" class="st5 st6 st10 st9">But</tspan><tspan x="40.9" y="0" class="st5 st6 st10 st9">t</tspan><tspan x="51" y="0" class="st5 st6 st10 st9">on</tspan></text>
		<path class="st3" d="M1048.4,491.9H881.1c-18.1,0-32.8,14.7-32.8,32.8v0c0,18.1,14.7,32.8,32.8,32.8h167.3
			c18.1,0,32.8-14.7,32.8-32.8v0C1081.3,506.6,1066.6,491.9,1048.4,491.9z"/>
		<path class="st4" d="M881.1,550c-13.9,0-25.3-11.3-25.3-25.3c0-13.9,11.3-25.3,25.3-25.3h167.3c13.9,0,25.3,11.3,25.3,25.3
			c0,13.9-11.3,25.3-25.3,25.3H881.1z"/>
		<path class="st3" d="M883.7,491.9h-2.6c-18.1,0-32.8,14.7-32.8,32.8v0c0,18.1,14.7,32.8,32.8,32.8h2.6c18.1,0,32.8-14.7,32.8-32.8
			v0C916.5,506.6,901.8,491.9,883.7,491.9z"/>
		<text transform="matrix(1 0 0 1 944.6318 532.8657)"><tspan x="0" y="0" class="st5 st6 st10 st9">But</tspan><tspan x="40.9" y="0" class="st5 st6 st10 st9">t</tspan><tspan x="51" y="0" class="st5 st6 st10 st9">on</tspan></text>
		<path class="st5" d="M1309.1,491.9h-167.3c-18.1,0-32.8,14.7-32.8,32.8v0c0,18.1,14.7,32.8,32.8,32.8h167.3
			c18.1,0,32.8-14.7,32.8-32.8v0C1341.9,506.6,1327.2,491.9,1309.1,491.9z"/>
		<path class="st4" d="M1141.7,550c-13.9,0-25.3-11.3-25.3-25.3c0-13.9,11.3-25.3,25.3-25.3h167.3c13.9,0,25.3,11.3,25.3,25.3
			c0,13.9-11.3,25.3-25.3,25.3H1141.7z"/>
		<path class="st5" d="M1143.7,507.4h-1.4c-9.6,0-17.3,7.7-17.3,17.3v0c0,9.6,7.7,17.3,17.3,17.3h1.4c9.6,0,17.3-7.7,17.3-17.3v0
			C1161,515.2,1153.3,507.4,1143.7,507.4z"/>
		<text transform="matrix(1 0 0 1 1205.2461 532.8657)"><tspan x="0" y="0" class="st5 st6 st10 st9">But</tspan><tspan x="40.9" y="0" class="st5 st6 st10 st9">t</tspan><tspan x="51" y="0" class="st5 st6 st10 st9">on</tspan></text>
		<text transform="matrix(1 0 0 1 229.0913 473.9917)"><tspan x="0" y="0" class="st4 st6 st7 st8">But</tspan><tspan x="54.2" y="0" class="st4 st6 st7 st9">t</tspan><tspan x="67.5" y="0" class="st4 st6 st7 st8">on</tspan></text>
		<polygon class="st1" points="440.1,574.9 460,601.4 479.8,574.9 		"/>
		<path class="st4" d="M498.7,658.8H67.9c-4.6,0-8.3,3.7-8.3,8.3v70.4c0,4.6,3.7,8.3,8.3,8.3h430.8c4.6,0,8.3-3.7,8.3-8.3v-70.4
			C507,662.5,503.3,658.8,498.7,658.8z"/>
		<circle class="st4" cx="797.7" cy="100.8" r="29.1"/>
		<path class="st11" d="M797.7,71.7c-1.8,0-3.5,0.2-5.2,0.5c13.6,2.5,23.9,14.3,23.9,28.6c0,14.3-10.3,26.1-23.9,28.6
			c1.7,0.3,3.4,0.5,5.2,0.5c16.1,0,29.1-13,29.1-29.1C826.8,84.7,813.8,71.7,797.7,71.7z"/>
		<path class="st3" d="M1314.9,177.4H878.8h-78.6H600.3c-4.6,0-8.3,3.7-8.3,8.3v20.7c0,4.6,3.7,8.3,8.3,8.3h199.9h78.6h436.1
			c4.6,0,8.3-3.7,8.3-8.3v-20.7C1323.2,181.1,1319.5,177.4,1314.9,177.4z"/>
		<path class="st3" d="M940.7,266.8H600.3c-4.6,0-8.3,3.7-8.3,8.3v46.1c0,4.6,3.7,8.3,8.3,8.3h340.4c4.6,0,8.3-3.7,8.3-8.3V275
			C949,270.5,945.3,266.8,940.7,266.8z"/>
		<path class="st4" d="M916.1,286.7H620c-2.6,0-4.7,1.4-4.7,3.2v17.9c0,1.8,2.1,3.2,4.7,3.2h296.1c2.6,0,4.7-1.4,4.7-3.2V290
			C920.8,288.2,918.7,286.7,916.1,286.7z"/>
		<path class="st1" d="M1313.9,266.8H984.2c-4.6,0-8.3,3.7-8.3,8.3v46.1c0,4.6,3.7,8.3,8.3,8.3h329.6c4.6,0,8.3-3.7,8.3-8.3V275
			C1322.1,270.5,1318.4,266.8,1313.9,266.8z"/>
		<path class="st5" d="M1314.9,177.4h-256.2v37.3h256.2c4.6,0,8.3-3.7,8.3-8.3v-20.7C1323.2,181.1,1319.5,177.4,1314.9,177.4z"/>
		<g>
			<circle class="st4" cx="1063.8" cy="198" r="29.1"/>
			<path class="st11" d="M1063.8,168.9c-1.8,0-3.5,0.2-5.2,0.5c13.6,2.5,23.9,14.3,23.9,28.6c0,14.3-10.3,26.1-23.9,28.6
				c1.7,0.3,3.4,0.5,5.2,0.5c16.1,0,29.1-13,29.1-29.1C1092.9,181.9,1079.9,168.9,1063.8,168.9z"/>
		</g>
		<path class="st4" d="M486,772.7H93.3c-12.6,0-22.7,10.2-22.7,22.7v313.8c0,12.6,10.2,22.7,22.7,22.7H486
			c12.6,0,22.7-10.2,22.7-22.7V795.4C508.7,782.9,498.6,772.7,486,772.7z"/>
		<path class="st1" d="M508.7,977.9V795.4c0-12.6-10.2-22.7-22.7-22.7H93.3c-12.6,0-22.7,10.2-22.7,22.7v182.4H508.7z"/>
		<g>
			<path class="st1" d="M191.7,1005.3h-91c-7.3,0-13.2,5.9-13.2,13.2v6.7c0,7.3,5.9,13.2,13.2,13.2h91c7.3,0,13.2-5.9,13.2-13.2
				v-6.7C204.9,1011.2,199,1005.3,191.7,1005.3z"/>
			<text transform="matrix(1 0 0 1 98.5259 1026.5527)"><tspan x="0" y="0" class="st4 st12 st13 st14">Lo</tspan><tspan x="17" y="0" class="st4 st12 st13 st14">r</tspan><tspan x="22.7" y="0" class="st4 st12 st13 st14">em ipsum</tspan></text>
		</g>
		<rect x="98.5" y="1053.5" class="st15" width="369.5" height="52.7"/>
		<text transform="matrix(1 0 0 1 98.5254 1062.7031)"><tspan x="0" y="0" class="st12 st16 st14">Lo</tspan><tspan x="15.9" y="0" class="st12 st16 st14">r</tspan><tspan x="21.1" y="0" class="st12 st16 st14">em ipsum dolor sit amet, consectetuer adipiscing </tspan><tspan x="0" y="14.8" class="st12 st16 st14">elit, sed diam nonummy nibh euismod tincidunt ut </tspan><tspan x="0" y="29.6" class="st12 st16 st14">lao</tspan><tspan x="20" y="29.6" class="st12 st16 st14">r</tspan><tspan x="25.2" y="29.6" class="st12 st16 st14">eet dolo</tspan><tspan x="78.1" y="29.6" class="st12 st16 st14">r</tspan><tspan x="83.4" y="29.6" class="st12 st16 st14">e magna aliquam e</tspan><tspan x="207" y="29.6" class="st12 st16">r</tspan><tspan x="212.2" y="29.6" class="st12 st16 st14">at </tspan><tspan x="229.4" y="29.6" class="st12 st16 st14">v</tspan><tspan x="236.5" y="29.6" class="st12 st16 st14">olutpat</tspan></text>
		<rect x="616" y="1072.2" class="st15" width="161.2" height="46.7"/>
		<text transform="matrix(1 0 0 1 616.0449 1081.415)"><tspan x="0" y="0" class="st4 st12 st16 st14">Lo</tspan><tspan x="15.9" y="0" class="st4 st12 st16 st14">r</tspan><tspan x="21.1" y="0" class="st4 st12 st16 st14">em ipsum dolor sit </tspan><tspan x="0" y="14.8" class="st4 st12 st16 st14">amet, consectetuer </tspan><tspan x="0" y="29.6" class="st4 st12 st16 st14">adipiscing elit.</tspan></text>
		<rect x="885.8" y="1074.9" class="st15" width="161.2" height="46.7"/>
		<text transform="matrix(1 0 0 1 885.7754 1084.1123)"><tspan x="0" y="0" class="st5 st12 st16 st14">Lo</tspan><tspan x="15.9" y="0" class="st5 st12 st16 st14">r</tspan><tspan x="21.1" y="0" class="st5 st12 st16 st14">em ipsum dolor sit </tspan><tspan x="0" y="14.8" class="st5 st12 st16 st14">amet, consectetuer </tspan><tspan x="0" y="29.6" class="st5 st12 st16 st14">adipiscing elit.</tspan></text>
		<path class="st5" d="M626.9,377.2c-16.6,0-30,13.4-30,30s13.4,30,30,30c16.6,0,30-13.4,30-30S643.5,377.2,626.9,377.2z
			 M626.9,425.8c-10.3,0-18.6-8.3-18.6-18.6c0-10.3,8.3-18.6,18.6-18.6c10.3,0,18.6,8.3,18.6,18.6
			C645.6,417.4,637.2,425.8,626.9,425.8z"/>
		<path class="st3" d="M720.5,377.2c-16.6,0-30,13.4-30,30s13.4,30,30,30c16.6,0,30-13.4,30-30S737,377.2,720.5,377.2z M720.5,425.8
			c-10.3,0-18.6-8.3-18.6-18.6c0-10.3,8.3-18.6,18.6-18.6c10.3,0,18.6,8.3,18.6,18.6C739.1,417.4,730.8,425.8,720.5,425.8z
			 M720.5,418.2c-6.1,0-11-4.9-11-11c0-6.1,4.9-11,11-11c6.1,0,11,4.9,11,11C731.5,413.2,726.6,418.2,720.5,418.2z"/>
		<circle class="st1" cx="810.6" cy="407.1" r="30"/>
		<path class="st5" d="M875.1,377.5v59.3h60.2v-59.3H875.1z M924.8,426.3h-39.1V388h39.1V426.3z"/>
		<path class="st3" d="M1158.5,377.5v59.3h182v-59.3H1158.5z M1330,426.3H1169V388H1330V426.3z"/>
		<polygon class="st3" points="1158.5,426.3 1158.5,436.8 1257.1,436.8 1257.1,377.5 1158.5,377.5 1158.5,418.7 		"/>
		<path class="st1" d="M973.1,376.9v59.3h60.2v-59.3H973.1z M998.6,419.1l-10.8-10.8l5.8-5.8l5.7,5.7l14.2-14.2l5.2,5.2L998.6,419.1
			z"/>
		<g>
			<path class="st5" d="M1067.5,377.5v59.3h60.2v-59.3H1067.5z M1117.2,426.3h-39.1V388h39.1V426.3z"/>
			<polygon class="st5" points="1093,419.1 1082.2,408.3 1088,402.5 1093.7,408.2 1107.9,394 1113,399.1 			"/>
		</g>
		<text transform="matrix(1 0 0 1 1185.4521 414.998)"><tspan x="0" y="0" class="st0 st6 st17 st9">Y</tspan><tspan x="16.5" y="0" class="st0 st6 st17 st9">ES</tspan></text>
		<text transform="matrix(1 0 0 1 1272.2793 414.998)" class="st3 st6 st17 st9">NO</text>
		<text transform="matrix(1 0 0 1 1170.0713 1107.918)"><tspan x="0" y="0" class="st5 st6 st18 st14">Y</tspan><tspan x="12.3" y="0" class="st5 st6 st18 st14">ES</tspan></text>
		<text transform="matrix(1 0 0 1 1264.1572 1107.918)" class="st5 st6 st18 st14">NO</text>
		<rect x="780.1" y="618.7" class="st19" width="3" height="47.8"/>
		<path class="st19" d="M1317.6,712.9h-704c-7.9,0-14.2,6.4-14.2,14.2v37.2c0,7.9,6.4,14.2,14.2,14.2h704c7.9,0,14.2-6.4,14.2-14.2
			v-37.2C1331.9,719.3,1325.5,712.9,1317.6,712.9z M1328.8,764.3c0,6.1-5,11.1-11.1,11.1h-704c-6.1,0-11.1-5-11.1-11.1v-37.2
			c0-6.1,5-11.1,11.1-11.1h704c6.1,0,11.1,5,11.1,11.1V764.3z"/>
		<path class="st3" d="M773.7,712.9h-160c-7.9,0-14.2,6.4-14.2,14.2v37.2c0,7.9,6.4,14.2,14.2,14.2h160c6.1,0,11-4.9,11-11V724
			C784.7,717.9,779.8,712.9,773.7,712.9z"/>
		<rect x="963.4" y="618.7" class="st19" width="3" height="47.8"/>
		<rect x="1146" y="618.7" class="st19" width="3" height="47.8"/>
		<text transform="matrix(1 0 0 1 629.2344 648.1855)"><tspan x="0" y="0" class="st12 st20 st14">Lo</tspan><tspan x="21.4" y="0" class="st12 st20 st14">r</tspan><tspan x="28.5" y="0" class="st12 st20 st14">em ipsum</tspan></text>
		<text transform="matrix(1 0 0 1 818.0518 648.1855)"><tspan x="0" y="0" class="st12 st20 st14">Lo</tspan><tspan x="21.4" y="0" class="st12 st20 st14">r</tspan><tspan x="28.5" y="0" class="st12 st20 st14">em ipsum</tspan></text>
		<text transform="matrix(1 0 0 1 997.9111 648.1855)"><tspan x="0" y="0" class="st12 st20 st14">Lo</tspan><tspan x="21.4" y="0" class="st12 st20 st14">r</tspan><tspan x="28.5" y="0" class="st12 st20 st14">em ipsum</tspan></text>
		<text transform="matrix(1 0 0 1 1180.8701 648.1855)"><tspan x="0" y="0" class="st12 st20 st14">Lo</tspan><tspan x="21.4" y="0" class="st12 st20 st14">r</tspan><tspan x="28.5" y="0" class="st12 st20 st14">em ipsum</tspan></text>
		<text transform="matrix(1 0 0 1 629.2344 752.0654)"><tspan x="0" y="0" class="st4 st12 st20 st14">Lo</tspan><tspan x="21.4" y="0" class="st4 st12 st20 st14">r</tspan><tspan x="28.5" y="0" class="st4 st12 st20 st14">em ipsum</tspan></text>
		<text transform="matrix(1 0 0 1 818.0518 752.0654)"><tspan x="0" y="0" class="st12 st20 st14">Lo</tspan><tspan x="21.4" y="0" class="st12 st20 st14">r</tspan><tspan x="28.5" y="0" class="st12 st20 st14">em ipsum</tspan></text>
		<text transform="matrix(1 0 0 1 997.9111 752.0654)"><tspan x="0" y="0" class="st12 st20 st14">Lo</tspan><tspan x="21.4" y="0" class="st12 st20 st14">r</tspan><tspan x="28.5" y="0" class="st12 st20 st14">em ipsum</tspan></text>
		<text transform="matrix(1 0 0 1 1180.8701 752.0654)"><tspan x="0" y="0" class="st12 st20 st14">Lo</tspan><tspan x="21.4" y="0" class="st12 st20 st14">r</tspan><tspan x="28.5" y="0" class="st12 st20 st14">em ipsum</tspan></text>
		<g>
			<g>
				<g>
					<polygon class="st5" points="456.7,714.5 436.5,696.5 440.6,691.9 456.7,706.2 472.7,691.9 476.8,696.5 					"/>
				</g>
			</g>
		</g>
		<g>
			<path class="st4" d="M1317.1,818.6H613.7c-7.9,0-14.2,6.4-14.2,14.2V870c0,7.9,6.4,14.2,14.2,14.2h703.4
				c7.9,0,14.2-6.4,14.2-14.2v-37.2C1331.3,825,1324.9,818.6,1317.1,818.6z"/>
			<circle class="st1" cx="632.9" cy="851.4" r="8.7"/>
			<circle class="st5" cx="662.5" cy="851.4" r="8.7"/>
			<circle class="st3" cx="692.6" cy="851.4" r="8.7"/>
			<rect x="745" y="834.3" class="st0" width="450.8" height="34.1"/>
			<g>
				<polygon class="st5" points="756.6,851.6 763.7,847.5 770.8,843.4 770.8,851.6 770.8,859.9 763.7,855.7 				"/>
				<polygon class="st5" points="796.6,851.6 789.5,847.5 782.4,843.4 782.4,851.6 782.4,859.9 789.5,855.7 				"/>
			</g>
			<path class="st5" d="M1177.4,852.3c0,3.2-2.6,5.9-5.9,5.9c-3.2,0-5.9-2.6-5.9-5.9c0-3,2.2-5.4,5.1-5.8v1.7l3.1-1.8l3.1-1.8
				l-3.1-1.8l-3.1-1.8v2.3c-4.7,0.4-8.3,4.3-8.3,9.1c0,5,4.1,9.1,9.1,9.1s9.1-4.1,9.1-9.1H1177.4z"/>
			<g>
				<circle class="st5" cx="1286.7" cy="841.6" r="2.5"/>
				<circle class="st5" cx="1286.7" cy="863.2" r="2.5"/>
				<circle class="st5" cx="1286.7" cy="853" r="2.5"/>
			</g>
			<path class="st3" d="M1243.4,837.4l3.8,7.8c0.2,0.3,0.5,0.6,0.9,0.6l8.6,1.3c0.9,0.1,1.3,1.3,0.6,1.9l-6.2,6.1
				c-0.3,0.3-0.4,0.6-0.3,1l1.5,8.6c0.2,0.9-0.8,1.6-1.6,1.2l-7.7-4c-0.3-0.2-0.7-0.2-1.1,0l-7.7,4c-0.8,0.4-1.8-0.3-1.6-1.2
				l1.5-8.6c0.1-0.4-0.1-0.7-0.3-1l-6.2-6.1c-0.7-0.7-0.3-1.8,0.6-1.9l8.6-1.3c0.4-0.1,0.7-0.3,0.9-0.6l3.8-7.8
				C1241.8,836.5,1243,836.5,1243.4,837.4z"/>
		</g>
		<circle class="st1" cx="658.5" cy="298.9" r="19.2"/>
		<g>
			<path class="st4" d="M1014.6,281.9l4.5,9.1c0.1,0.3,0.4,0.5,0.8,0.6l10.1,1.5c0.8,0.1,1.2,1.2,0.6,1.7l-7.3,7.1
				c-0.2,0.2-0.4,0.6-0.3,0.9l1.7,10c0.1,0.8-0.7,1.5-1.5,1.1l-9-4.7c-0.3-0.2-0.7-0.2-1,0l-9,4.7c-0.8,0.4-1.6-0.2-1.5-1.1l1.7-10
				c0.1-0.3-0.1-0.7-0.3-0.9l-7.3-7.1c-0.6-0.6-0.3-1.6,0.6-1.7l10.1-1.5c0.3,0,0.6-0.3,0.8-0.6l4.5-9.1
				C1013.1,281.1,1014.2,281.1,1014.6,281.9z"/>
			<path class="st4" d="M1079.9,281.9l4.5,9.1c0.1,0.3,0.4,0.5,0.8,0.6l10.1,1.5c0.8,0.1,1.2,1.2,0.6,1.7l-7.3,7.1
				c-0.2,0.2-0.4,0.6-0.3,0.9l1.7,10c0.1,0.8-0.7,1.5-1.5,1.1l-9-4.7c-0.3-0.2-0.7-0.2-1,0l-9,4.7c-0.8,0.4-1.6-0.2-1.5-1.1l1.7-10
				c0.1-0.3-0.1-0.7-0.3-0.9l-7.3-7.1c-0.6-0.6-0.3-1.6,0.6-1.7l10.1-1.5c0.3,0,0.6-0.3,0.8-0.6l4.5-9.1
				C1078.4,281.1,1079.5,281.1,1079.9,281.9z"/>
			<path class="st4" d="M1145.3,281.9l4.5,9.1c0.1,0.3,0.4,0.5,0.8,0.6l10.1,1.5c0.8,0.1,1.2,1.2,0.6,1.7l-7.3,7.1
				c-0.2,0.2-0.4,0.6-0.3,0.9l1.7,10c0.1,0.8-0.7,1.5-1.5,1.1l-9-4.7c-0.3-0.2-0.7-0.2-1,0l-9,4.7c-0.8,0.4-1.6-0.2-1.5-1.1l1.7-10
				c0.1-0.3-0.1-0.7-0.3-0.9l-7.3-7.1c-0.6-0.6-0.3-1.6,0.6-1.7l10.1-1.5c0.3,0,0.6-0.3,0.8-0.6l4.5-9.1
				C1143.8,281.1,1144.9,281.1,1145.3,281.9z"/>
			<path class="st21" d="M1210.6,281.9l4.5,9.1c0.1,0.3,0.4,0.5,0.8,0.6l10.1,1.5c0.8,0.1,1.2,1.2,0.6,1.7l-7.3,7.1
				c-0.2,0.2-0.4,0.6-0.3,0.9l1.7,10c0.1,0.8-0.7,1.5-1.5,1.1l-9-4.7c-0.3-0.2-0.7-0.2-1,0l-9,4.7c-0.8,0.4-1.6-0.2-1.5-1.1l1.7-10
				c0.1-0.3-0.1-0.7-0.3-0.9l-7.3-7.1c-0.6-0.6-0.3-1.6,0.6-1.7l10.1-1.5c0.3,0,0.6-0.3,0.8-0.6l4.5-9.1
				C1209.2,281.1,1210.2,281.1,1210.6,281.9z"/>
			<path class="st21" d="M1276,281.9l4.5,9.1c0.1,0.3,0.4,0.5,0.8,0.6l10.1,1.5c0.8,0.1,1.2,1.2,0.6,1.7l-7.3,7.1
				c-0.2,0.2-0.4,0.6-0.3,0.9l1.7,10c0.1,0.8-0.7,1.5-1.5,1.1l-9-4.7c-0.3-0.2-0.7-0.2-1,0l-9,4.7c-0.8,0.4-1.6-0.2-1.5-1.1l1.7-10
				c0.1-0.3-0.1-0.7-0.3-0.9l-7.3-7.1c-0.6-0.6-0.3-1.6,0.6-1.7l10.1-1.5c0.3,0,0.6-0.3,0.8-0.6l4.5-9.1
				C1274.5,281.1,1275.6,281.1,1276,281.9z"/>
		</g>
		<g>
			
				<rect x="697.8" y="909.8" transform="matrix(0.5 -0.866 0.866 0.5 -514.7193 1105.4536)" class="st5" width="4.3" height="177.3"/>
			
				<rect x="697.8" y="909.8" transform="matrix(-0.5 -0.866 0.866 -0.5 185.272 2103.9404)" class="st5" width="4.3" height="177.3"/>
		</g>
		<g>
			
				<rect x="962.2" y="906.5" transform="matrix(0.5 -0.866 0.866 0.5 -379.6315 1332.6893)" class="st4" width="4.3" height="177.3"/>
			
				<rect x="962.2" y="906.5" transform="matrix(-0.5 -0.866 0.866 -0.5 584.6956 2327.8044)" class="st4" width="4.3" height="177.3"/>
		</g>
		<polygon class="st5" points="1306.4,967.1 1304.3,963.5 1232.4,1005.1 1160.4,963.5 1158.4,967.1 1228.3,1007.4 1158.4,1047.8 
			1160.4,1051.3 1232.4,1009.8 1304.3,1051.3 1306.4,1047.8 1236.5,1007.4 		"/>
	</g>
</g>
</svg>
